<?xml version="1.0"?>
<svg xmlns="http://www.w3.org/2000/svg" viewBox="0 0 512 512" width="512" height="512"><g id="Filled_outline" data-name="Filled outline"><path d="M312,352H200a48,48,0,0,1-48-48V128A104,104,0,0,1,256,24h0A104,104,0,0,1,360,128V304A48,48,0,0,1,312,352Z" style="fill:#f99e0c"/><path d="M336,320H300a12,12,0,0,1-12-12V240H224v68a12,12,0,0,1-12,12H176a48,48,0,0,0-48,48V496H384V368A48,48,0,0,0,336,320Z" style="fill:#fdc8a2"/><path d="M288,248v41.33a80.1,80.1,0,0,1-64,0V248Z" style="fill:#fdbf92"/><path d="M352,448.54v.83A54.641,54.641,0,0,1,336,488v8H176v-8a54.636,54.636,0,0,1-16-38.63v-.83a54.639,54.639,0,0,1,9.17-30.3L176,408V320h24l56,128,56-128h24v88l6.83,10.24A54.639,54.639,0,0,1,352,448.54Z" style="fill:#2f486e"/><path d="M336,144v48a80,80,0,0,1-160,0V144a80,80,0,1,1,160,0Z" style="fill:#fdc8a2"/><path d="M336,144v48a79.758,79.758,0,0,1-24,57.13V162.24a77.195,77.195,0,0,0-48-71.47A76.224,76.224,0,0,0,256,88a76.224,76.224,0,0,0-8,2.77,77.212,77.212,0,0,0-48,71.47v86.89A79.758,79.758,0,0,1,176,192V144a80,80,0,1,1,160,0Z" style="fill:#fdbf92"/><path d="M360,128V304a48,48,0,0,1-48,48V146.24a77.195,77.195,0,0,0-48-71.47A76.224,76.224,0,0,0,256,72a76.224,76.224,0,0,0-8,2.77,77.212,77.212,0,0,0-48,71.47V352a48,48,0,0,1-48-48V128A104.012,104.012,0,0,1,248,24.3q3.96-.3,8-.3t8,.3A104.011,104.011,0,0,1,360,128Z" style="fill:#ffb431"/><path d="M377.739,330.665l-11.923,10.669A39.931,39.931,0,0,1,376,368V496h16V368A55.9,55.9,0,0,0,377.739,330.665Z"/><path d="M344,405.577v-55.66A55.966,55.966,0,0,0,368,304V128A112,112,0,0,0,178.46,47.182l11.079,11.544A95.459,95.459,0,0,1,248,32.351V66.21a85.608,85.608,0,0,0-56,80.031V343.2A40.071,40.071,0,0,1,160,304V128a95.036,95.036,0,0,1,20.321-59.073l-12.6-9.854A110.891,110.891,0,0,0,144,128V304a55.813,55.813,0,0,0,2.462,16.423A56.085,56.085,0,0,0,120,368V496h16V368a40.051,40.051,0,0,1,17.4-32.983,56.446,56.446,0,0,0,14.6,14.9v55.66l-5.486,8.226A62.42,62.42,0,0,0,152,448.54v.83a62.65,62.65,0,0,0,16,41.815V496h16v-8a8,8,0,0,0-2.343-5.657A46.643,46.643,0,0,1,168,449.37v-.83a46.476,46.476,0,0,1,7.825-25.861l6.83-10.24A8,8,0,0,0,184,408V369.305l16.411,49.225,15.178-5.06-17.844-53.527c.749.03,1.5.057,2.255.057a7.992,7.992,0,0,0,6.977-4.093l41.694,95.3a8,8,0,0,0,14.658,0l41.693-95.3A7.993,7.993,0,0,0,312,360c1.527,0,3.034-.079,4.531-.2l-20.022,53.39,14.982,5.618L328,374.784V408a8,8,0,0,0,1.345,4.439l6.829,10.239A46.474,46.474,0,0,1,344,448.54v.83a46.954,46.954,0,0,1-13.657,32.973A8,8,0,0,0,328,488v8h16v-4.821a63.113,63.113,0,0,0,16-41.809v-.83A62.424,62.424,0,0,0,349.485,413.8ZM352,128V304a40.071,40.071,0,0,1-32,39.2V146.241A85.608,85.608,0,0,0,264,66.21V32.336A96.127,96.127,0,0,1,352,128ZM296,270.374a87.27,87.27,0,0,0,8-4.628V312h-4a4,4,0,0,1-4-4ZM256,80.36a69.521,69.521,0,0,1,48,65.881v7.129a14,14,0,1,0,0,25.26v67.035a71.963,71.963,0,0,1-96,0V178.63a14,14,0,1,0,0-25.26v-7.129A69.521,69.521,0,0,1,256,80.36ZM208,312V265.746a87.048,87.048,0,0,0,8,4.629V308a4,4,0,0,1-4,4Zm48,116.041L226.233,360H240V344H219.233l-7-16.012A20.016,20.016,0,0,0,232,308V276.68a88.407,88.407,0,0,0,48,0V308a20.017,20.017,0,0,0,19.773,19.989L292.768,344H272v16h13.768Z"/><path d="M256,232a24.027,24.027,0,0,0,24-24H264a8,8,0,0,1-16,0H232A24.027,24.027,0,0,0,256,232Z"/></g></svg>
