<svg height="512" viewBox="0 0 512 512" width="512" xmlns="http://www.w3.org/2000/svg"><g id="Filled_outline" data-name="Filled outline"><path d="m172 176h12v-56h-12a28 28 0 0 0 -28 28 28 28 0 0 0 28 28z" fill="#fdbf92"/><path d="m340 120h-12v56h12a28 28 0 0 0 28-28 28 28 0 0 0 -28-28z" fill="#fdbf92"/><path d="m416 397.48v98.52h-320v-98.52a48 48 0 0 1 36.36-46.57l59.64-14.91 24-24v-32h80v32l24 24 59.64 14.91a48 48 0 0 1 36.36 46.57z" fill="#fdc8a2"/><path d="m300.32 316.32a31.923 31.923 0 0 1 -14.89 3.68h-58.86a31.923 31.923 0 0 1 -14.89-3.68l4.32-4.32v-32h80v32z" fill="#fdbf92"/><path d="m416 397.48v98.52h-320v-98.52a47.982 47.982 0 0 1 36.36-46.57l59.64-14.91 24-24 16 56 24 56 24-56 16-56 24 24 59.64 14.91a48.009 48.009 0 0 1 36.36 46.57z" fill="#2f486e"/><path d="m216 312-24 24v64l40-32z" fill="#415e89"/><path d="m296 312-16 56 40 32v-64z" fill="#415e89"/><path d="m336 120v48a195.4 195.4 0 0 1 -1.46 23.82 192.921 192.921 0 0 1 -4.36 23.46l-10.61 42.42a40 40 0 0 1 -38.8 30.3h-49.54a40 40 0 0 1 -38.8-30.3l-10.61-42.42a194.7 194.7 0 0 1 -5.82-47.28v-48a80 80 0 1 1 160 0z" fill="#fdc8a2"/><path d="m176 152 40 48h80l40-56v88a32 32 0 0 1 -4.216 15.876l-18.571 32.5a32 32 0 0 1 -27.783 16.124h-58.86a32 32 0 0 1 -27.783-16.123l-18.571-32.5a32 32 0 0 1 -4.216-15.877z" fill="#f88400"/><path d="m214 160a14 14 0 1 1 14-14 14.015 14.015 0 0 1 -14 14z" fill="#91563a"/><path d="m298 160a14 14 0 1 1 14-14 14.015 14.015 0 0 1 -14 14z" fill="#91563a"/><path d="m312 72 24 56v-56a24 24 0 0 0 -24-24z" fill="#ef7800"/><path d="m200 72-24 56v-56a24 24 0 0 1 24-24z" fill="#ef7800"/><path d="m312 48v24h-112a54.636 54.636 0 0 1 -16-38.63v-9.37h83.16a53.9 53.9 0 0 1 44.84 24z" fill="#f88400"/><path d="m408 424h16v72h-16z"/><path d="m413.46 364.8a55.969 55.969 0 0 0 -31.879-21.647l-57.49-14.373-20.091-20.094v-8.8a40 40 0 0 0 16.159-15.547l18.57-32.5a40.068 40.068 0 0 0 5.271-19.839v-48.228a35.994 35.994 0 0 0 0-71.544v-40.228a32.044 32.044 0 0 0 -27.676-31.7 61.756 61.756 0 0 0 -49.168-24.3h-83.156a8 8 0 0 0 -8 8v9.373a62.147 62.147 0 0 0 14.62 40.205l-6.62 15.446v-17.024h-16v40.228a35.994 35.994 0 0 0 0 71.544v48.228a40.061 40.061 0 0 0 5.271 19.845l18.57 32.5a40 40 0 0 0 16.159 15.545v8.8l-20.091 20.09-57.488 14.372a56.045 56.045 0 0 0 -42.421 54.328v98.52h16v-98.52a39.86 39.86 0 0 1 2.1-12.78l31.4 43.953 13.02-9.3-35.384-49.538a39.975 39.975 0 0 1 19.164-11.144l49.7-12.425v53.754a8.092 8.092 0 0 0 13 6.248l31.79-25.433 19.21 44.827v70.358h16v-70.358l19.212-44.828 31.788 25.433c4.99 3.991 13 .375 13-6.247v-53.754l49.7 12.426a39.952 39.952 0 0 1 19.171 11.143l-35.381 49.536 13.02 9.3 31.4-43.954a39.888 39.888 0 0 1 2.09 12.783v10.52h16v-10.52a55.575 55.575 0 0 0 -10.54-32.68zm-53.46-216.8a20.037 20.037 0 0 1 -16 19.6v-39.2a20.037 20.037 0 0 1 16 19.6zm-32-76v17.024l-8-18.666v-12.211a16.011 16.011 0 0 1 8 13.853zm-24-21.472v13.472h-19.056l-15.973-31.947a45.776 45.776 0 0 1 35.029 18.475zm-59.056 13.472-16-32h22.112l16 32zm-52.944-32h19.056l16 32h-23.59a46.283 46.283 0 0 1 -11.466-30.627zm13.275 48h101.45l21.275 49.642v11.8l-36.117 50.558h-35.883v-39.5h-16v39.5h-20.253l-35.747-42.9v-19.458zm-53.275 68a20.037 20.037 0 0 1 16-19.6v39.2a20.037 20.037 0 0 1 -16-19.6zm35.162 95.906a24.026 24.026 0 0 1 -3.162-11.906v-57.9l25.854 31.024a8 8 0 0 0 6.146 2.876h80a8 8 0 0 0 6.51-3.351l25.49-35.685v63.036a24.033 24.033 0 0 1 -3.162 11.907l-18.571 32.5a24.051 24.051 0 0 1 -20.837 12.093h-58.86a24.054 24.054 0 0 1 -20.838-12.1zm100.838 60.506v6.466l-15.554 54.44-16.446 38.373-16.446-38.373-15.554-54.44v-6.466c.853.055 63.147.055 64 0zm-88 78.943v-44.041l12.043-12.043 10.8 37.808zm89.155-18.276 10.8-37.808 12.045 12.043v44.041z"/><path d="m144 468.725c-6.612-9.66-12.961-22.685-16.572-31.7l-14.855 5.945c1.61 4.024 15.144 36.951 31.428 49.366v3.664h16v-56h-16.001z"/><path d="m216 432h16v16h-16z"/><path d="m368 467.95v-27.95h-16v56h16v-3.913c16.108-13.157 29.772-45.139 31.385-49.01l-14.77-6.154a189.318 189.318 0 0 1 -16.615 31.027z"/><path d="m214 160a14 14 0 1 0 -14-14 14.015 14.015 0 0 0 14 14z"/><path d="m298 160a14 14 0 1 0 -14-14 14.015 14.015 0 0 0 14 14z"/><path d="m282.53 233.418-5.052-15.182c-.225.075-22.787 7.442-44.743 5.41l-1.47 15.932c3.18.294 6.35.423 9.467.423a146.9 146.9 0 0 0 41.798-6.583z"/></g></svg>